<svg id="Capa_1" data-name="Capa 1" xmlns="http://www.w3.org/2000/svg" viewBox="0 0 559.08 71.04"><defs><style>.cls-1{fill:#3873b4;}.cls-2{fill:#ef5a23;}</style></defs><title>New_logo_Pmorelius2023_web-blue</title><path class="cls-1" d="M171,9.2a30.43,30.43,0,0,1,12.91,2.73,24,24,0,0,1,9.41,7.4,16.7,16.7,0,0,1,3.5,10.21,16.89,16.89,0,0,1-3.44,10.21,23.57,23.57,0,0,1-9.36,7.4,30.46,30.46,0,0,1-12.91,2.72h-27V68.76H129.07V21.12q0-5.79,3.87-8.85T144.13,9.2ZM171,38a11.65,11.65,0,0,0,7.53-2.51,7.2,7.2,0,0,0,0-11.87A11.79,11.79,0,0,0,171,21.12H144.13V38Z"/><path class="cls-1" d="M279.28,66.64A23.26,23.26,0,0,1,270,59.28,16.7,16.7,0,0,1,270,39a23.26,23.26,0,0,1,9.31-7.36,31.55,31.55,0,0,1,25.61,0,24.12,24.12,0,0,1,9.35,7.36,16.5,16.5,0,0,1,0,20.22,23.67,23.67,0,0,1-9.31,7.36,31.7,31.7,0,0,1-25.65,0Zm19.84-7.91a13.12,13.12,0,0,0,5.15-4,9,9,0,0,0,0-11.07,13.12,13.12,0,0,0-5.15-4,16.56,16.56,0,0,0-7-1.5,16.35,16.35,0,0,0-7,1.5,13.17,13.17,0,0,0-5.1,4,9,9,0,0,0,0,11.07,13.17,13.17,0,0,0,5.1,4,16.35,16.35,0,0,0,7,1.5A16.56,16.56,0,0,0,299.12,58.73Z"/><path class="cls-1" d="M324.28,41.54a7.9,7.9,0,0,1,.5-2.9,6.63,6.63,0,0,1,1.64-2.38,26.48,26.48,0,0,1,8.73-5.34,31.06,31.06,0,0,1,23.72.85l-5.76,7.88A16.23,16.23,0,0,0,346,38.08a17,17,0,0,0-5.35.85,13.92,13.92,0,0,0-4.45,2.41,1.11,1.11,0,0,0-.41.91V68.76H324.28Z"/><path class="cls-1" d="M409.35,52.05a5.5,5.5,0,0,1-3.62,1.21l-33.85-.13a12.47,12.47,0,0,0,5.27,5.37,16,16,0,0,0,8.07,2.12,18.65,18.65,0,0,0,6.06-1.14,14.51,14.51,0,0,0,4.9-2.9l11.36,2.61a23.66,23.66,0,0,1-9.39,7.42,31.35,31.35,0,0,1-25.57,0,23.22,23.22,0,0,1-9.3-7.36,16.65,16.65,0,0,1,0-20.22,23.51,23.51,0,0,1,9.3-7.33A30.39,30.39,0,0,1,385.39,29a30.07,30.07,0,0,1,12.76,2.7,23.51,23.51,0,0,1,9.27,7.36,16.77,16.77,0,0,1,3.42,10.13A3.55,3.55,0,0,1,409.35,52.05ZM376.74,40.14a12.23,12.23,0,0,0-5.27,6l27.75.14a12,12,0,0,0-5.18-6,16.54,16.54,0,0,0-8.65-2.47A16.14,16.14,0,0,0,376.74,40.14Z"/><path class="cls-1" d="M429,68.76H417.42V16.66H429Z"/><path class="cls-1" d="M440,23a4.45,4.45,0,0,1,0-7.29,7.83,7.83,0,0,1,9.22,0,4.46,4.46,0,0,1,0,7.29A7.83,7.83,0,0,1,440,23Zm-1.16,45.79V29.68h11.53V68.76Z"/><path class="cls-1" d="M471.81,66.87a21.66,21.66,0,0,1-8.44-6.68A15,15,0,0,1,460.24,51V29.68h11.53V51a7.59,7.59,0,0,0,1.57,4.6A10.65,10.65,0,0,0,477.58,59a14.21,14.21,0,0,0,11.61,0,10.65,10.65,0,0,0,4.24-3.35A7.59,7.59,0,0,0,495,51V29.68h11.53V51a15,15,0,0,1-3.13,9.15A21.66,21.66,0,0,1,495,66.87a28.25,28.25,0,0,1-23.15,0Z"/><path class="cls-1" d="M515.91,68.76V59.64h25.53a4.12,4.12,0,0,0,2.72-.88,2.65,2.65,0,0,0,1.07-2.11,2.55,2.55,0,0,0-1.11-2.09,4.33,4.33,0,0,0-2.68-.85H530a18.1,18.1,0,0,1-7.7-1.62,13.86,13.86,0,0,1-5.52-4.4,9.92,9.92,0,0,1,0-12,13.94,13.94,0,0,1,5.56-4.36,18,18,0,0,1,7.62-1.6h22.64V38.8H530a4.23,4.23,0,0,0-2.64.81,2.51,2.51,0,0,0-1.07,2.06,2.57,2.57,0,0,0,1.07,2.08,4.14,4.14,0,0,0,2.64.85h11.44a18,18,0,0,1,7.7,1.63,14.18,14.18,0,0,1,5.56,4.39,9.91,9.91,0,0,1,2.06,6,10,10,0,0,1-2.06,6.09,14.18,14.18,0,0,1-5.56,4.39,18,18,0,0,1-7.7,1.63Z"/><path class="cls-1" d="M259.83,64.62A4.16,4.16,0,0,1,258.06,68a7.18,7.18,0,0,1-8.52,0,4.16,4.16,0,0,1-1.77-3.37V47.13q0-5.28-4.7-9a19.27,19.27,0,0,0-22.76,0q-4.71,3.72-4.71,9V64.62A4.16,4.16,0,0,1,213.83,68a7.18,7.18,0,0,1-8.52,0,4.16,4.16,0,0,1-1.77-3.37V47.13q0-9.23,8.24-15.74t19.91-6.52q11.66,0,19.9,6.52t8.24,15.74ZM225.65,47.13a4.18,4.18,0,0,1,1.77-3.37,7.2,7.2,0,0,1,8.53,0,4.18,4.18,0,0,1,1.77,3.37V64.62A4.16,4.16,0,0,1,236,68a7.2,7.2,0,0,1-8.53,0,4.16,4.16,0,0,1-1.77-3.37Z"/><circle class="cls-1" cx="312.11" cy="24.17" r="5.95"/><rect class="cls-2" x="86.83" y="47.57" width="20.9" height="4.52" transform="translate(-11.28 62.54) rotate(-33.8)"/><path class="cls-2" d="M84.42,52.89a4.62,4.62,0,1,0,6.41,1.27A4.61,4.61,0,0,0,84.42,52.89ZM88,58.28a1.87,1.87,0,1,1,.52-2.6A1.87,1.87,0,0,1,88,58.28Z"/><polygon class="cls-2" points="100.95 44.65 104.7 42.14 111.3 51.99 107.26 54.6 107.16 54.16 100.95 44.65"/><polygon class="cls-2" points="106.74 53.47 111.29 51.99 113.69 62.03 109.17 63.11 107.13 54.01 106.74 53.47"/><path class="cls-2" d="M109.34,61.12a4.62,4.62,0,1,0,6.4,1.27A4.62,4.62,0,0,0,109.34,61.12Zm3.61,5.4a1.88,1.88,0,1,1,.51-2.61A1.88,1.88,0,0,1,113,66.52Z"/><polygon class="cls-2" points="93.38 37.87 106.1 31.98 106.46 31.6 108.81 35.71 95.28 41.97 93.38 37.87"/><polygon class="cls-2" points="105.61 32.21 106.1 31.98 112.76 24.89 116.06 27.98 108.81 35.71 105.61 32.21"/><path class="cls-2" d="M116,20.43a4.62,4.62,0,1,0,4.37,4.85A4.6,4.6,0,0,0,116,20.43Zm-.34,6.48a1.87,1.87,0,1,1,2-1.77A1.86,1.86,0,0,1,115.62,26.91Z"/><path class="cls-2" d="M92.77,36a4.62,4.62,0,1,0,4.38,4.85A4.6,4.6,0,0,0,92.77,36Zm-.33,6.48a1.87,1.87,0,1,1,2-1.77A1.87,1.87,0,0,1,92.44,42.44Z"/><polygon class="cls-2" points="98 17.53 98.57 17.08 97.47 8.83 101.95 8.23 103.4 19.06 98 17.53"/><polygon class="cls-2" points="89.54 24.12 98.57 17.08 98.48 16.43 103.4 19.06 92.32 27.69 89.54 24.12"/><path class="cls-2" d="M99.45,1.85a4.62,4.62,0,1,0,4.62,4.62A4.62,4.62,0,0,0,99.45,1.85Zm0,6.5a1.88,1.88,0,1,1,1.87-1.88A1.88,1.88,0,0,1,99.45,8.35Z"/><path class="cls-2" d="M89.45,22.52a4.62,4.62,0,1,0,4.62,4.62A4.62,4.62,0,0,0,89.45,22.52Zm0,6.49a1.88,1.88,0,1,1,1.88-1.87A1.88,1.88,0,0,1,89.45,29Z"/><rect class="cls-2" x="22.35" y="39.63" width="4.52" height="20.9" transform="translate(-30.69 42.68) rotate(-56.2)"/><path class="cls-2" d="M31.07,54.4a4.62,4.62,0,1,0,6.41-1.27A4.62,4.62,0,0,0,31.07,54.4Zm2.28,1.53a1.87,1.87,0,1,1,.52,2.6A1.88,1.88,0,0,1,33.35,55.93Z"/><polygon class="cls-2" points="20.95 44.9 17.2 42.39 10.6 52.24 14.64 54.84 14.74 54.4 20.95 44.9"/><polygon class="cls-2" points="15.16 53.71 10.6 52.24 8.21 62.28 12.73 63.36 14.77 54.26 15.16 53.71"/><path class="cls-2" d="M6.15,62.63a4.62,4.62,0,1,0,6.41-1.27A4.63,4.63,0,0,0,6.15,62.63Zm2.28,1.53a1.88,1.88,0,1,1,3.12,2.09,1.88,1.88,0,0,1-3.12-2.09Z"/><polygon class="cls-2" points="28.52 38.12 15.79 32.23 15.44 31.85 13.09 35.96 26.62 42.22 28.52 38.12"/><polygon class="cls-2" points="16.29 32.46 15.79 32.23 9.14 25.13 5.84 28.23 13.09 35.96 16.29 32.46"/><path class="cls-2" d="M1.57,25.52a4.62,4.62,0,1,0,4.37-4.85A4.62,4.62,0,0,0,1.57,25.52Zm2.74-.14a1.87,1.87,0,1,1,2,1.78A1.88,1.88,0,0,1,4.31,25.38Z"/><path class="cls-2" d="M24.75,41.05a4.62,4.62,0,1,0,4.38-4.85A4.63,4.63,0,0,0,24.75,41.05Zm2.74-.14a1.88,1.88,0,1,1,2,1.78A1.88,1.88,0,0,1,27.49,40.91Z"/><polygon class="cls-2" points="23.9 17.78 23.33 17.33 24.43 9.08 19.94 8.48 18.5 19.3 23.9 17.78"/><polygon class="cls-2" points="32.36 24.37 23.33 17.33 23.41 16.67 18.5 19.3 29.57 27.93 32.36 24.37"/><path class="cls-2" d="M17.83,6.72A4.62,4.62,0,1,0,22.45,2.1,4.62,4.62,0,0,0,17.83,6.72Zm2.75,0a1.88,1.88,0,1,1,1.87,1.87A1.88,1.88,0,0,1,20.58,6.72Z"/><path class="cls-2" d="M27.83,27.38a4.62,4.62,0,1,0,4.62-4.62A4.62,4.62,0,0,0,27.83,27.38Zm2.74,0a1.88,1.88,0,1,1,1.88,1.88A1.88,1.88,0,0,1,30.57,27.38Z"/><polygon class="cls-2" points="52.09 14.48 52.13 6.13 55.29 6.14 55.25 12.98 52.09 14.48"/><path class="cls-2" d="M51.62,15.22l.05-9.56,4.1,0-.05,7.6Zm1-8.62,0,7.13,2.22-1.05,0-6.07Z"/><polygon class="cls-2" points="45.71 17.42 45.75 9.07 48.91 9.09 48.87 15.92 45.71 17.42"/><path class="cls-2" d="M45.23,18.16l.05-9.56,4.1,0-.05,7.6Zm1-8.62,0,7.14,2.22-1,0-6.08Z"/><polygon class="cls-2" points="66.55 12.98 66.51 6.14 69.67 6.13 69.71 14.48 66.55 12.98"/><path class="cls-2" d="M70.18,15.22l-4.1-1.94,0-7.6,4.1,0ZM67,12.68l2.22,1.05,0-7.13H67Z"/><polygon class="cls-2" points="72.94 15.92 72.9 9.09 76.06 9.07 76.1 17.42 72.94 15.92"/><path class="cls-2" d="M76.57,18.16l-4.1-1.94,0-7.6,4.1,0ZM73.4,15.63l2.22,1,0-7.14H73.37Z"/><circle class="cls-2" cx="64.11" cy="31.59" r="1.87"/><path class="cls-2" d="M71.94,60.87H50.3L36.47,43.93l4.69-21.36,19.68-9.29,19.62,9.24,5,21.3ZM52.36,56.54H69.84L80.75,42.77l-4-17.22L60.84,18.07,44.93,25.58,41.15,42.81Z"/><path class="cls-2" d="M67.58,51.48h-13L46.19,41.26,49,28.39l11.86-5.61,11.84,5.58,3,12.84Zm-12-2.17h11l6.84-8.63L70.85,29.87l-10-4.69-10,4.71L48.53,40.7Z"/></svg>