<svg id="Capa_1" data-name="Capa 1" xmlns="http://www.w3.org/2000/svg" viewBox="0 0 429.36 65.48"><defs><style>.cls-1{fill:#191919;}</style></defs><title>New_logo_Pmorelius2023_text-web</title><path class="cls-1" d="M44,2.85A30.21,30.21,0,0,1,56.81,5.56a23.92,23.92,0,0,1,9.35,7.35,16.67,16.67,0,0,1,0,20.28,23.62,23.62,0,0,1-9.29,7.36,30.51,30.51,0,0,1-12.83,2.7H17.27V62h-15V14.7q0-5.76,3.85-8.78t11.11-3Zm0,28.57a11.58,11.58,0,0,0,7.48-2.49A7.16,7.16,0,0,0,53.31,19a7.08,7.08,0,0,0-1.85-1.85A11.63,11.63,0,0,0,44,14.7H17.27V31.42Z"/><path class="cls-1" d="M151.52,59.91a23.19,23.19,0,0,1-9.24-7.31,16.56,16.56,0,0,1,0-20.12,23,23,0,0,1,9.24-7.31,31.23,31.23,0,0,1,25.44,0,23.86,23.86,0,0,1,9.28,7.31,16.4,16.4,0,0,1,0,20.09A23.59,23.59,0,0,1,177,59.88a31.65,31.65,0,0,1-25.48,0Zm19.71-7.86a13.11,13.11,0,0,0,5.12-4,9,9,0,0,0,0-11,12.93,12.93,0,0,0-5.12-4,16.44,16.44,0,0,0-7-1.49,16,16,0,0,0-6.95,1.49,13,13,0,0,0-5.08,4,9,9,0,0,0,0,11,13.17,13.17,0,0,0,5.08,4,16.34,16.34,0,0,0,6.95,1.49A16.59,16.59,0,0,0,171.23,52.05Z"/><path class="cls-1" d="M196.22,35a7.83,7.83,0,0,1,.49-2.88,6.47,6.47,0,0,1,1.64-2.39A26.27,26.27,0,0,1,207,24.39a30.84,30.84,0,0,1,23.56.84l-5.71,7.86a16,16,0,0,0-7-1.55,16.54,16.54,0,0,0-5.32.84,13.25,13.25,0,0,0-4.41,2.4,1,1,0,0,0-.41.9V62H196.22Z"/><path class="cls-1" d="M280.73,45.42a5.52,5.52,0,0,1-3.6,1.19l-33.62-.12a12.4,12.4,0,0,0,5.23,5.33,16,16,0,0,0,8,2.1,18.65,18.65,0,0,0,6-1.13,14.48,14.48,0,0,0,4.87-2.88L278.9,52.5a23.54,23.54,0,0,1-9.33,7.38,31.3,31.3,0,0,1-25.4,0,23.19,23.19,0,0,1-9.24-7.31,16.52,16.52,0,0,1,0-20.09,23.12,23.12,0,0,1,9.24-7.28,31.38,31.38,0,0,1,25.4,0,23.14,23.14,0,0,1,9.2,7.31,16.67,16.67,0,0,1,3.4,10.06A3.59,3.59,0,0,1,280.73,45.42Zm-32.4-11.84a12,12,0,0,0-5.23,5.92l27.56.13a11.91,11.91,0,0,0-5.15-6,16.31,16.31,0,0,0-8.59-2.45A16,16,0,0,0,248.33,33.58Z"/><path class="cls-1" d="M300.19,62H288.74V10.25h11.45Z"/><path class="cls-1" d="M311.16,16.53a4.43,4.43,0,0,1-1.1-6.16,4.38,4.38,0,0,1,1.1-1.09,7.81,7.81,0,0,1,9.16,0,4.44,4.44,0,0,1,1.08,6.17,4.61,4.61,0,0,1-1.08,1.08A7.81,7.81,0,0,1,311.16,16.53ZM310,62V23.19h11.45V62Z"/><path class="cls-1" d="M342.77,60.14a21.59,21.59,0,0,1-8.38-6.64,14.83,14.83,0,0,1-3.11-9.09V23.19h11.45V44.41A7.57,7.57,0,0,0,344.28,49a10.75,10.75,0,0,0,4.22,3.33,14.13,14.13,0,0,0,11.53,0A10.79,10.79,0,0,0,364.24,49a7.62,7.62,0,0,0,1.56-4.57V23.19h11.45V44.41a14.9,14.9,0,0,1-3.11,9.09,21.59,21.59,0,0,1-8.38,6.64,28.19,28.19,0,0,1-23,0Z"/><path class="cls-1" d="M386.58,62V53h25.35a4.18,4.18,0,0,0,2.7-.87A2.65,2.65,0,0,0,415.7,50a2.52,2.52,0,0,0-1.11-2.07,4.2,4.2,0,0,0-2.66-.84H400.56a17.93,17.93,0,0,1-7.64-1.62,13.71,13.71,0,0,1-5.48-4.37,9.84,9.84,0,0,1,0-12A13.76,13.76,0,0,1,393,24.75a17.73,17.73,0,0,1,7.56-1.59H423v9.06h-22.5a4.13,4.13,0,0,0-2.61.81,2.46,2.46,0,0,0-1.07,2,2.55,2.55,0,0,0,1.07,2.07,4.08,4.08,0,0,0,2.61.84h11.37a17.71,17.71,0,0,1,7.65,1.62,14.08,14.08,0,0,1,5.52,4.36,9.87,9.87,0,0,1,0,12,14.19,14.19,0,0,1-5.52,4.36,18,18,0,0,1-7.65,1.62Z"/><path class="cls-1" d="M132.2,57.9a4.14,4.14,0,0,1-1.75,3.35,7.16,7.16,0,0,1-8.47,0,4.13,4.13,0,0,1-1.76-3.35V40.53q0-5.25-4.67-8.94a19.1,19.1,0,0,0-22.61,0q-4.66,3.69-4.67,8.94V57.9a4.18,4.18,0,0,1-1.76,3.35,7.16,7.16,0,0,1-8.47,0,4.13,4.13,0,0,1-1.76-3.35V40.53q0-9.16,8.19-15.64t19.77-6.47q11.58,0,19.78,6.47t8.18,15.64ZM98.25,40.53A4.14,4.14,0,0,1,100,37.18a7.13,7.13,0,0,1,8.47,0,4.16,4.16,0,0,1,1.76,3.35V57.9a4.18,4.18,0,0,1-1.76,3.35,7.16,7.16,0,0,1-8.47,0,4.13,4.13,0,0,1-1.76-3.35Z"/><circle class="cls-1" cx="183.55" cy="18.82" r="5.03"/></svg>